<svg width="1440" height="1657" viewBox="0 0 1440 1657" fill="none" xmlns="http://www.w3.org/2000/svg">
<g opacity="0.2">
<g filter="url(#filter0_f_133_1712)">
<path d="M156.884 -374.454C111.11 -394.004 -20.2786 -185.139 -81.7574 -75.6758C-82.7621 -73.887 -83.2541 -71.9288 -83.2541 -69.8772V-42.9576C-83.2541 -41.7408 -83.4391 -40.531 -83.8029 -39.3699L-111.975 50.5497C-112.498 52.217 -112.65 53.9783 -112.421 55.7105L-85.2113 261.468C-84.2061 269.069 -76.4278 273.791 -69.2205 271.175L236.041 160.372C243.866 157.531 252.135 163.327 252.135 171.652V393.931C252.135 396.574 253.008 399.144 254.618 401.24L449.775 655.349C452.757 659.232 457.798 660.914 462.514 659.6L908.358 535.35C913.738 533.851 917.378 528.98 917.13 523.401C908.011 318.619 889.008 -73.006 882.666 -73.006C874.617 -73.006 214.571 -349.817 156.884 -374.454Z" fill="#00B2FF"/>
</g>
<g filter="url(#filter1_f_133_1712)">
<path d="M881.277 781.285L866.348 351.04C865.992 340.785 854.716 334.893 846.777 340.422C809.97 366.054 745.952 398.297 684.621 390.75C612.348 381.856 528.84 257.094 494.059 192.242C492.735 189.773 490.794 187.9 488.335 186.848C400.024 149.077 200.73 111.584 79.8679 253.312C-73.3691 433.004 -236.291 255.643 -247.826 271.656C-256.99 284.378 -302.948 568.508 -325.24 711.9C-325.55 713.894 -326.299 715.697 -327.444 717.286L-479.97 929.028C-484.744 935.656 -482.093 945.452 -474.656 948.36C-362.288 992.302 -145.11 1074.17 -67.0472 1092.07C11.0057 1109.96 121.445 1265.26 173.336 1350.85C177.086 1357.03 184.857 1358.57 190.226 1354.17L876.84 791.455C879.765 789.058 881.415 785.275 881.277 781.285Z" fill="#00FF47"/>
</g>
</g>
<g opacity="0.4">
<g filter="url(#filter2_f_133_1712)">
<path d="M1239.26 1000.34C1274.93 1013.41 1367.91 848.812 1411.32 762.229C1412.25 760.388 1412.65 758.398 1412.56 756.348L1411.67 736.874C1411.61 735.658 1411.74 734.44 1412.05 733.26L1430.21 664.209C1430.66 662.515 1430.73 660.747 1430.42 659.028L1403.07 506.483C1401.71 498.944 1393.73 494.643 1386.66 497.64L1163.48 592.155C1155.8 595.409 1147.28 590.062 1146.9 581.746L1139.32 416.33C1139.2 413.689 1138.21 411.168 1136.5 409.16L979.842 224.572C976.687 220.854 971.577 219.444 966.929 221.008L633.512 333.192C628.208 334.977 624.799 340.079 625.303 345.639C639.549 502.793 667.624 799.326 672.46 799.067C678.629 798.737 1194.18 983.818 1239.26 1000.34Z" fill="#00B2FF"/>
</g>
<g filter="url(#filter3_f_133_1712)">
<path d="M643.638 145.792L669.605 467.643C670.43 477.867 682.025 483.208 689.826 477.449C717.688 456.875 763.114 432.445 807.945 435.547C863.31 439.377 931.204 530.488 960.431 578.991C961.872 581.382 963.926 583.183 966.433 584.092C1035.87 609.265 1188.96 629.162 1276.23 516.085C1387.35 372.096 1518.44 501.34 1526.72 488.595C1533.28 478.492 1558.43 259.765 1570.5 148.739C1570.72 146.731 1571.39 144.884 1572.46 143.235L1679.42 -21.4571C1683.89 -28.3323 1680.75 -37.99 1673.18 -40.492C1584.57 -69.8167 1419 -122.35 1359.36 -132.724C1299.73 -143.097 1211.26 -254.638 1167.82 -318.579C1163.77 -324.54 1155.91 -325.691 1150.75 -321.009L647.605 135.396C644.793 137.947 643.317 141.814 643.638 145.792Z" fill="#00FF47"/>
</g>
</g>
<defs>
<filter id="filter0_f_133_1712" x="-412.524" y="-675.736" width="1629.67" height="1635.78" filterUnits="userSpaceOnUse" color-interpolation-filters="sRGB">
<feFlood flood-opacity="0" result="BackgroundImageFix"/>
<feBlend mode="normal" in="SourceGraphic" in2="BackgroundImageFix" result="shape"/>
<feGaussianBlur stdDeviation="150" result="effect1_foregroundBlur_133_1712"/>
</filter>
<filter id="filter1_f_133_1712" x="-782.368" y="-147.683" width="1963.65" height="1804.37" filterUnits="userSpaceOnUse" color-interpolation-filters="sRGB">
<feFlood flood-opacity="0" result="BackgroundImageFix"/>
<feBlend mode="normal" in="SourceGraphic" in2="BackgroundImageFix" result="shape"/>
<feGaussianBlur stdDeviation="150" result="effect1_foregroundBlur_133_1712"/>
</filter>
<filter id="filter2_f_133_1712" x="325.253" y="-79.6213" width="1405.36" height="1380.69" filterUnits="userSpaceOnUse" color-interpolation-filters="sRGB">
<feFlood flood-opacity="0" result="BackgroundImageFix"/>
<feBlend mode="normal" in="SourceGraphic" in2="BackgroundImageFix" result="shape"/>
<feGaussianBlur stdDeviation="150" result="effect1_foregroundBlur_133_1712"/>
</filter>
<filter id="filter3_f_133_1712" x="343.595" y="-623.897" width="1637.88" height="1527.5" filterUnits="userSpaceOnUse" color-interpolation-filters="sRGB">
<feFlood flood-opacity="0" result="BackgroundImageFix"/>
<feBlend mode="normal" in="SourceGraphic" in2="BackgroundImageFix" result="shape"/>
<feGaussianBlur stdDeviation="150" result="effect1_foregroundBlur_133_1712"/>
</filter>
</defs>
</svg>
