<svg width="2765" height="2333" viewBox="0 0 2765 2333" fill="none" xmlns="http://www.w3.org/2000/svg">
<g opacity="0.2">
<g filter="url(#filter0_f_0_4)">
<path d="M939.884 301.546C894.11 281.996 762.721 490.862 701.243 600.324C700.238 602.113 699.746 604.071 699.746 606.123V633.043C699.746 634.259 699.561 635.469 699.197 636.63L671.025 726.55C670.502 728.217 670.35 729.979 670.579 731.711L697.789 937.468C698.794 945.069 706.572 949.791 713.779 947.175L1019.04 836.372C1026.87 833.532 1035.13 839.327 1035.13 847.652V1069.93C1035.13 1072.57 1036.01 1075.14 1037.62 1077.24L1232.78 1331.35C1235.76 1335.23 1240.8 1336.91 1245.51 1335.6L1691.36 1211.35C1696.74 1209.85 1700.38 1204.98 1700.13 1199.4C1691.01 994.619 1672.01 602.994 1665.67 602.994C1657.62 602.994 997.571 326.183 939.884 301.546Z" fill="#672BFD"/>
</g>
<g filter="url(#filter1_f_0_4)">
<path d="M1664.28 1457.29L1649.35 1027.04C1648.99 1016.79 1637.72 1010.89 1629.78 1016.42C1592.97 1042.05 1528.95 1074.3 1467.62 1066.75C1395.35 1057.86 1311.84 933.094 1277.06 868.243C1275.73 865.774 1273.79 863.9 1271.34 862.849C1183.02 825.077 983.73 787.584 862.868 929.312C709.631 1109 546.709 931.643 535.174 947.656C526.01 960.378 480.052 1244.51 457.76 1387.9C457.45 1389.89 456.7 1391.7 455.556 1393.29L303.03 1605.03C298.256 1611.66 300.907 1621.45 308.343 1624.36C420.712 1668.3 637.89 1750.17 715.953 1768.07C794.006 1785.96 904.445 1941.26 956.335 2026.85C960.086 2033.03 967.857 2034.57 973.226 2030.17L1659.84 1467.46C1662.76 1465.06 1664.42 1461.27 1664.28 1457.29Z" fill="#0739CF"/>
</g>
</g>
<g opacity="0.4">
<g filter="url(#filter2_f_0_4)">
<path d="M2022.26 1676.34C2057.93 1689.41 2150.91 1524.81 2194.32 1438.23C2195.25 1436.39 2195.65 1434.4 2195.56 1432.35L2194.67 1412.87C2194.61 1411.66 2194.74 1410.44 2195.05 1409.26L2213.22 1340.21C2213.66 1338.51 2213.73 1336.75 2213.42 1335.03L2186.07 1182.48C2184.71 1174.94 2176.73 1170.64 2169.66 1173.64L1946.48 1268.16C1938.8 1271.41 1930.28 1266.06 1929.9 1257.75L1922.32 1092.33C1922.2 1089.69 1921.21 1087.17 1919.5 1085.16L1762.84 900.572C1759.69 896.854 1754.58 895.444 1749.93 897.008L1416.51 1009.19C1411.21 1010.98 1407.8 1016.08 1408.3 1021.64C1422.55 1178.79 1450.62 1475.33 1455.46 1475.07C1461.63 1474.74 1977.18 1659.82 2022.26 1676.34Z" fill="#672BFD"/>
</g>
<g filter="url(#filter3_f_0_4)">
<path d="M1426.64 821.792L1452.6 1143.64C1453.43 1153.87 1465.03 1159.21 1472.83 1153.45C1500.69 1132.87 1546.11 1108.45 1590.94 1111.55C1646.31 1115.38 1714.2 1206.49 1743.43 1254.99C1744.87 1257.38 1746.93 1259.18 1749.43 1260.09C1818.87 1285.27 1971.96 1305.16 2059.23 1192.09C2170.35 1048.1 2301.44 1177.34 2309.72 1164.6C2316.28 1154.49 2341.43 935.765 2353.5 824.739C2353.72 822.731 2354.39 820.884 2355.46 819.235L2462.42 654.543C2466.89 647.668 2463.75 638.01 2456.18 635.508C2367.57 606.183 2202 553.65 2142.36 543.276C2082.73 532.903 1994.26 421.362 1950.82 357.421C1946.77 351.46 1938.91 350.31 1933.75 354.991L1430.6 811.397C1427.79 813.947 1426.32 817.815 1426.64 821.792Z" fill="#0739CF"/>
</g>
</g>
<defs>
<filter id="filter0_f_0_4" x="370.476" y="0.26387" width="1629.67" height="1635.78" filterUnits="userSpaceOnUse" color-interpolation-filters="sRGB">
<feFlood flood-opacity="0" result="BackgroundImageFix"/>
<feBlend mode="normal" in="SourceGraphic" in2="BackgroundImageFix" result="shape"/>
<feGaussianBlur stdDeviation="150" result="effect1_foregroundBlur_0_4"/>
</filter>
<filter id="filter1_f_0_4" x="0.631622" y="528.317" width="1963.65" height="1804.37" filterUnits="userSpaceOnUse" color-interpolation-filters="sRGB">
<feFlood flood-opacity="0" result="BackgroundImageFix"/>
<feBlend mode="normal" in="SourceGraphic" in2="BackgroundImageFix" result="shape"/>
<feGaussianBlur stdDeviation="150" result="effect1_foregroundBlur_0_4"/>
</filter>
<filter id="filter2_f_0_4" x="1108.25" y="596.378" width="1405.36" height="1380.69" filterUnits="userSpaceOnUse" color-interpolation-filters="sRGB">
<feFlood flood-opacity="0" result="BackgroundImageFix"/>
<feBlend mode="normal" in="SourceGraphic" in2="BackgroundImageFix" result="shape"/>
<feGaussianBlur stdDeviation="150" result="effect1_foregroundBlur_0_4"/>
</filter>
<filter id="filter3_f_0_4" x="1126.59" y="52.1027" width="1637.88" height="1527.5" filterUnits="userSpaceOnUse" color-interpolation-filters="sRGB">
<feFlood flood-opacity="0" result="BackgroundImageFix"/>
<feBlend mode="normal" in="SourceGraphic" in2="BackgroundImageFix" result="shape"/>
<feGaussianBlur stdDeviation="150" result="effect1_foregroundBlur_0_4"/>
</filter>
</defs>
</svg>
